<svg width="27" height="48" viewBox="0 0 27 48" fill="none" xmlns="http://www.w3.org/2000/svg">
<path d="M8.03034 36.3823C4.86409 35.217 1.49769 36.8031 0.364888 39.9491C-0.767917 43.095 0.81921 46.4453 3.98546 47.6106C7.15171 48.776 10.5001 47.2445 11.6329 44.0985C12.7657 40.9526 11.1966 37.5497 8.03034 36.3844V36.3823Z" fill="white"/>
<path d="M20.3705 0.815623C14.7942 -1.25151 10.1321 0.613851 8.07104 6.37465C6.99501 9.37858 5.94932 14.3817 6.0019 25.6542L6.01606 31.1102C6.02011 32.325 6.76645 33.41 7.889 33.8239C9.50709 34.423 11.2728 33.4368 11.643 31.7259L12.1365 29.4425C12.8606 26.0927 15.0551 23.2144 18.1436 21.8431C22.9716 19.6978 25.4392 15.4729 26.2786 13.1258C28.3396 7.36498 25.866 2.85393 20.3705 0.815623ZM18.3095 11.6948C16.2464 11.6948 14.5758 9.99213 14.5758 7.89411C14.5758 5.79609 16.2485 4.09339 18.3095 4.09339C20.3705 4.09339 22.0432 5.79609 22.0432 7.89411C22.0432 9.99213 20.3705 11.6948 18.3095 11.6948Z" fill="white"/>
</svg>
